# xmcd CD database file
#
# Track frame offsets:
#	150
#	25524
#	40272
#	60100
#	89578
#
# Disc length: 1480 seconds
#
# Revision: 0
# Processed by: cddbd v1.5.2PL0 Copyright (c) Steve Scherf et al.
# Submitted via: CDex 1.70beta2
#
DISCID=2f05c605
DTITLE=Attic Wolves - Carry Us On
DYEAR=2012
DGENRE=Blues
TTITLE0=Still Alive
TTITLE1=True North
TTITLE2=Tumbling
TTITLE3=The Balladeer
TTITLE4=Pick Me Up
EXTD=YEAR: 2012
EXTT0=
EXTT1=
EXTT2=
EXTT3=
EXTT4=
PLAYORDER=
